<?xml version="1.0" standalone="no"?>
<!DOCTYPE svg PUBLIC "-//W3C//DTD SVG 20010904//EN"
 "http://www.w3.org/TR/2001/REC-SVG-20010904/DTD/svg10.dtd">
<svg version="1.0" xmlns="http://www.w3.org/2000/svg"
 width="260.000000pt" height="260.000000pt" viewBox="0 0 260.000000 260.000000"
 preserveAspectRatio="xMidYMid meet">
<metadata>
Created by potrace 1.14, written by Peter Selinger 2001-2017
</metadata>
<g transform="translate(0.000000,260.000000) scale(0.100000,-0.100000)"
fill="#000000" stroke="none">
<path d="M320 2404 c-57 -18 -83 -40 -112 -95 l-23 -44 -3 -915 c-2 -503 0
-943 3 -977 8 -79 44 -136 105 -166 l45 -22 952 -3 c908 -2 954 -1 999 17 27
10 61 31 76 46 59 59 58 42 58 1055 0 1018 1 994 -60 1057 -64 65 -25 63
-1059 62 -788 0 -943 -3 -981 -15z"/>
</g>
</svg>
