<svg height="1230" width="1200" xmlns="http://www.w3.org/2000/svg"><path d="m-1-1h582v402h-582z" fill="none"/><path d="m164.276108 1099.48584h244.31398v-13.556885" fill="none" stroke="#000" stroke-linecap="round" stroke-width="3"/><path d="m316.707092 1099.861816v12.803955" fill="none" stroke="#000" stroke-linecap="round" stroke-width="3"/><path d="m164.258102 1085.657959v27.729004" fill="none" stroke="#000" stroke-linecap="round" stroke-width="3"/><text x="315.758499" y="1134.068542"/><text fill="none" stroke="#000" stroke-linecap="round" stroke-width="1.3321" x="315.758499" y="1134.068542"/><text font-family="ArialMT" font-size="18.199699" x="283.384995" y="1134.068542">1000 km</text><text style="fill:none;stroke:#000;stroke-width:1.3321;stroke-linecap:round;font-family:ArialMT;font-size:18.199699" x="283.384995" y="1134.068542">1000 km</text><text x="353.188705" y="1134.068542"/><text fill="none" stroke="#000" stroke-linecap="round" stroke-width="1.3321" x="353.188705" y="1134.068542"/><text x="393.586716" y="1078.913269"/><text fill="none" stroke="#000" stroke-linecap="round" x="393.586716" y="1078.913269"/><text font-family="ArialMT" font-size="18.200001" x="363.740494" y="1078.913269">1000 mi</text><text fill="none" font-family="ArialMT" font-size="18.200001" stroke="#000" stroke-linecap="round" x="363.740494" y="1078.913269">1000 mi</text><text x="428.488998" y="1078.913269"/><text fill="none" stroke="#000" stroke-linecap="round" x="428.488998" y="1078.913269"/><text x="151.708694" y="1078.672058"/><text fill="none" stroke="#000" stroke-linecap="round" x="151.708694" y="1078.672058"/><text font-family="ArialMT" font-size="18.200001" x="149.17601" y="1078.672058">0</text><text fill="none" font-family="ArialMT" font-size="18.200001" stroke="#000" stroke-linecap="round" x="149.17601" y="1078.672058">0</text><text x="159.297592" y="1078.672058"/><text fill="none" stroke="#000" stroke-linecap="round" x="159.297592" y="1078.672058"/><text x="151.384995" y="1132.650574"/><text fill="none" stroke="#000" stroke-linecap="round" stroke-width="1.3868" x="151.384995" y="1132.650574"/><text font-family="ArialMT" font-size="18.200001" x="148.85231" y="1132.650574">0</text><text style="fill:none;stroke:#000;stroke-width:1.3868;stroke-linecap:round;font-family:ArialMT;font-size:18.200001" x="148.85231" y="1132.650574">0</text><text x="158.974289" y="1132.650574"/><g stroke="#000" stroke-linecap="round"><text fill="none" stroke-width="1.3868" x="158.974289" y="1132.650574"/><path d="m726.745422 263.844574 131.971985-3.937988 4.251038 4.201996 8.711975-1.100006c.300354-2.536499 44.287292-2.773865 44.587646-5.310303l-22.39563-17.937714-2.888-14.258987 4.617981.162994-11.232971-10-30.812012-50.891998-.138977-6.177002c-7.291016-4.779999-12.686035-10.826004-15.942017-18.296005l-.286011-4.742996-4.650024-3.384003 1.21405-7.526993 13.812988 18.459991c1.235962 1.424011-.153015 2.448013.961975 3.993011 3.609985 4.998993 9.825989 10.041 13.48999 12.968994 1.871033-.628998 4.065002-.182999 4.994019-3.957993l3.603027-23.974014-16.197021-33.000092c-10.937012 7.653107-21.872986 10.712097-32.810974-.679993l-13.366028 1.024094c-3.054016 1.313004-6.304993 3.313004-8.067993.106995l-21.565002 12.601013-35.713013-7.956009c-5.365967-1.102997-11.091003-2.919998-15.52002-2.145996-4.542969 2.772003-7.774963.630005-11.005981-1.522003-1.838013 3.193008-3.774963 6.423004-2.013 8.307999l1.444031 13.003998c-3.161011 5.095001-6.078003 10.318008 3.911987 22.318008l7.031982 119.651001z" fill="#ccc"/><path d="m501.22113 617.960876-27.135986 1.310974-5.42804-3.555969 8.142029-15.627014 24.234985-.281006z" fill="#ccc"/><path d="m426.329102 632.198853c.000977 1.625-1.315002 2.942017-2.940002 2.942017s-2.942017-1.317017-2.940979-2.942017c-.001038-1.625 1.315979-2.942017 2.940979-2.942017s2.940979 1.317017 2.940002 2.942017z" fill="#ccc"/><path d="m437.73114 608.792847c0 1.29303-1.048035 2.341003-2.340027 2.341003-1.292969 0-2.341003-1.047974-2.341003-2.341003 0-1.292969 1.048035-2.341003 2.341003-2.341003 1.291992.000977 2.340027 1.048035 2.340027 2.341003z" fill="#ccc"/><path d="m1120.008057 494.086853-48.203003 55.005981-18.833984-.338989c-2.324951.645996-11.041992 6.007996-16.047974 10.414978-4.104004 3.615051-10.43103 5.723022-16.906006 8.670044-3.840027.020996-8.502014 1.414001-11.190002-.484009-6.30304-6.109009-13.517029-3.117004-20.652039-.893005-2.357971 4.343018-5.578003 7.822998-10.940002 9.161987l-25.761963-4.005981c-5.832031-4.949036-12.257996-9.541992-20.235046-13.203979l-14.315979-.992004.01001-11.63501-11.260986-4.121033-8.140015-18.588013-11.68103-9.343994c2.17804-3.486969-3.539978-6.366974-6.44696-9.463989-3.954041.891022-7.90802.084015-11.862-2.041992l3.479004-4.182007-.212036-5.381989 10.263.186005c2.241028-1.407013 4.720032-1.945007 6.359985-5.554016l-.292969-30.158997 4.882996-7.681 5.13501.188019 2.34198-12.869019c6.179016-7.600983 8.366028-16.881989 18.557983-22.792999l2.674011-22.309998 8.163025-.234985 1.132996-2.656006 3.963013.069 3.394958 5.643982 4.889038-12.969971c3.22998 2.077972 7.450012 2.15799 9.339966 6.727997l8.240051-1.612 1.391968-2.637024 1.478027-.315979 1.988953 3.503998c2.612-1.554016 5.858032-3.209015 10.048035-.496002 1.213013.518005 2.627014.789001 5.75-1.028015 3.302002 1.78302 5.304993 5.421021 9.979004 5.243011 10.550964 9.213013 20.776978 18.79599 29.829956 29.721008-.815979.770996-1.185974 3.687988-1.786987 10.276001l-3.906006 7.007996c-3.146973 5.169006.662048 9.727997 6.656006 7.580994l5.263977-2.02301 5.284058 2.163025c-6.379028 7.353973 8.807007 20.15799 22.494995 32.945984l49.41394 15.789001 16.272095-.283997h-.003052z" fill="#ccc"/><path d="m200.983093 137.558853 16.028992-7.986008 3.309998 1.182999 5.490005-4.769997 9.218002.845001.498993-4.261002c19.07901.933006 23.040009-4.169998 26.408997-9.284996l15.973999-6.582001 5.89801.184998-3.088013-4.085999.813019-3.229996-.128998-5.348007c6.246979-.817993 13.950989.185005 13.997986-6.349998l25.843994.359001 3.587006-7.431999c-4.953979-1.818001-5.839996-8.981003-5.177002-16.593002.493011-5.650997.046021-18.508999.046021-18.508999-1.710022-2.063-3.839996-4.006001-4.333008-6.969997 1.381989-.614002 7.868011.448997 11.806-4.825001 2.028992-2.719 4.622009-8.205 8.006989-7.134001 3.951019 1.252001 11.520996 2.042 11.984009-.466.494995-2.683001 7.829987-8.587 18.421997-8.552 19.401001.063 44.46701-7.318 52.65799-4.919 8.190002 2.398999 18.858002-3.188001 23.594025-2.884001 4.768982.306001 6.207001 5.508 12.712982 1.082001 2.432007-1.654 11.213013 5.225999 19.582001 2.789 0 0-4.997009 2.219001-5.278992 7.349-.43399 7.901001-1.165985 32.493999-1.165985 32.493999-.830994-1.328999-6.779022-.332001-7.714996 3.681999-1.271027 5.454002-7.408997 4.043003-7.896027 6.799004-.97998 5.545998 3.859009 10.639999 9.560028 15.614998 1.460999 1.275002-.538025 8.338997.908997 9.630997 4.414978 3.939003 12.240997 6.621002 12.240997 6.621002 1.816986 18.072998 5.035004 30.554001 5.035004 30.554001-8.282013.554001-3.856018 8.240997 1.720978 16.447006l.348022 47.009995s-7.481018 1.516998-6.964996 3.444992c1.159973 4.32901 1.431976 7.529007 6.89798 12.396011 3.51001 3.123001 3.575012 8.39299 3.272003 11.853989-.348999 3.994003 3.681 5.804001 4.734009 5.778 8.208008-.197998 15.145996-4.192993 22.921997 17.24501l-98.328003 64.617996c-14.593018 6.285004-38.628998 10.045013-39.456024 9.681-5.481995-2.411011.872009-8.446991-.96698-12.484009-1.841003-4.042999-4.061005-7.082977-10.309021-6.405975-3.323975.359985-5.067993-3.915009-6.383972-3.697021-5.320007.881012-6.675018-5.164001-7.851013-6.238983-4.665985-4.269012-9.299011-5.51001-8.238007-9.390015l-143.694-109.537003 3.45401-29.727005v.000015z" fill="#ccc"/><path d="m509.131104 927.452881c3.590027-.953003 7.473022-5.715027 10.694031-1.888977 3.198975-3.956055 12.08197-11.785034 26.439941 2.872986l72.149048-.987 7.729004 6.738037 45.477966 5.882935 28.765991-6.476929-19.44397-17.353027 1.487976-61.456055 34.695007 1.030029-3.770996-4.021973 4.085999-32.499023c-.46698.117004-1.002014-.121033-1.45697.044006-8.363037 3.046997-17.254028 2.343018-26.225037 2.521973l-3.117981 6.113037-5.687988-4.791992 6.34198-8.448059-8.562012-17.346985-1.307983-38.928955-14.822021 1.051941.005005-7.028992-6.584961-.962952-1.729004 3.126953-12.104004-.622986-4.598022 17.622009c-6.008972-1.083008-11.557983-2.562012-20.559021 1.987976-7.951965-2.557007-15.151001 3.402039-26.406982-36.528992l-4.258972-2.544983-45.582031-.734009-20.737976 7.119019c5.19397 14.938965 16.164001 23.424011 15.792969 45.518982l-3.565979 3.419983c2.94397 9.978027 5.570007 20.415039 12.124023 25.179016.645996 2.794006-.769043 4.825012-.952026 6.924011-.671997 7.677979-4.708008 29.440979-6.47998 25.562012 0 0-7.309021 1.596985-7.963989 7.481995-.319031 2.867004-3.857056 3.271973-5.172058 6.805969-3.675964 9.879028-7.549988 25.549011-10.34198 39.794006-.323975 1.650024-2.47699.926025-2.742004 2.5-.766968 4.536011.085999 7.759033-.198975 12.572021-.085999 1.438965-1.915039-.971985-2.269043.80896-.434998 2.200012 1.337036 8.436035.853027 9.944031z" fill="#ccc"/><path d="m514.322144 721.640869 8.046997-4.866028c3.369995-7.914978 6.122009-5.618958 8.796021-2.05896-3.421021 3.088013-6.973022 6.072998-7.307007 11.560974.807983 7.608032-2.723022 6.971985-5.231018 8.277039-1.112976-2.065002-2.69696-4.037048-2.145996-6.434998-.067017-2.268005-.034973-4.55304-2.158997-6.478027z" fill="#ccc"/><path d="m359.361115 529.05188-15.311005 2.049011-7.90799-61.994019c-1.011017-4.72699-5.70401-6.820984-9.287018-9.709991l1.899017-10.131989 9.92099-7.809998 10.342987.421997 7.598999-12.242004 17.097015 2.743988.106018 13.556c4.849976 5.210999 3.970001 12.205017.311981 14.397003.334015 6.527008-.855988 11.938995-5.194 11.792999-2.626984 7.059998-4.867981 15.535004-8.610992 18.502014l-.966003 38.424988z" fill="#ccc"/><path d="m729.982117 935.021851-10.628967 5.971008c-10.491028.060974-11.139038 6.234985-15.068054 9.554993l-2.955994-8.310974-39.729004 3.480957-2.264954 61.540039-16.272034-.381958-1.096008 44.415955c4.444031 5.455078 10.449036 11.395996 13.457031 15.369995 2.930969 3.869995 1.057983 11.427979-1.788025 18.487061 7.871033 3.330933 15.507996 3.494019 23.085999 1.523926 1.127014-2.98999 2.671997-5.14502 4.715027-6.304932 3.284973-1.887085 5.992004-4.293091 7.000977-8.228027l9.898987-8.255981c6.102051.531982 10.795044 2.953003 15.558044 6.44397 10.089966.140015 16.091003-1.696045 20.277954-3.827026l1.957031-9.299927 58.093994-46.425049c-7.312988-5.315979-10.963013-4.104004-15.138977-5.08197-4.207031-.984009-9.395996-8.460083-8-21.313049-4.028015-.79303-6.606995-3.036987-8.820007-5.645996-2.528015-4.236023-5.830994-3.829041-8.769043-5.613037-4.552979-6.330994-12.927002-14.460999-13.570984-19.348999-.312012-2.370972-1.559998-2.243958-3.335999-4.884949-2.050964-3.045044-4.750977-10.126038-6.606995-13.866028z" fill="#ccc"/><path d="m803.651123 681.399841 2.430969-2.28302 2.946045.145996 1.472961 4.125 8.249023-1.619995.440979-5.156006 10.312012-.588989c-3.406982 5.924988 1.669983 9.156982 3.830017 12.152039-6.906982 16.138-12.786987 21.807983-18.127014 22.070984-7.076965.031006-6.150024 2.622986-6.914978 4.885986-.513-7.174988-.140991-13.867004.310974-19.740967.551025-7.184021-1.838989-12.473999-4.950989-13.991028z" fill="#ccc"/><path d="m269.710114 474.432861c-3.183014-.431-4.304993-4.709015-6.908997-7.177002-5.132996-4.863007-14.828003-1.248993-22.559006 3.520996-9.415009-4.704987-10.690994-8.941986-12.425995-12.848999 1.883987-5.080994.600998-11.757996 3.155991-17.156982 2.281006-4.823029 6.25-9.287018 13.210999-13.115021l8.501007-17.822998c7.29599-2.411987 13.921997-3.329987 19.632996-5.34198 5.493988-1.936005 10.44101-5.10202 13.451996-9.146027 10.884003-6.721985 24.39502-15.341003 32.740997-13.207977-.115997 2.737976-.127991 5.454987 1.561005 7.832977 2.830017 1.921997 2.227997 5.108002 1.649994 8.285004l16.820007 22.614014 6.406006 2.130005c.936005-1.068024 5.507996-6.71402 7.764008 5.733978l3.813995.81601-7.359009 12.411011-10.425995-.552002-10.035004 7.833984-15.108002-1.794006c-8.684998-.149994-9.47998 1.540009-13.178986 2.553009l-33.529999-.958008 2.821991 25.390015z" fill="#ccc"/><path d="m628.006104 575.85083c-2.924011 8.718994-6.409973 14.906006-10.052979 24.390991-4.778015 12.440002-3.716003 31.616028-6.152039 48.578979-12.635986 5.728027-16.635986 14.911011-23.102966 23.106018l-5.041992 24.127014c-9.122009 8.927002-17.609009 20.393982-28.598999 21.853027-.66803-13.458008-12.32605-6.990051-13.608032-1.69104-5.552002 3.66803-7.364014-.143982-10.500977-1.305969-4.012024 2.888-6.919006 6.326965-6.959045 11.199951.565002 7.784058-2.971985 7.364014-5.529968 8.900024l1.495972 5.934021 20.842041-7.131042 45.580994.818054 4.22998 2.472961c10.361023 38.416016 18.765991 34.627991 26.197998 36.502014 11.580017-4.846008 14.677002-2.151001 20.833984-2.177979l4.476013-17.472046 12.16803.686035 1.555969-3.187988 6.757996 1.052979.103027 7.062012 14.669006-1.074036 1.524963 38.683044 8.36499 17.409973-6.381958 8.646973 5.815002 4.917053 3.107971-6.221008 19.238037-.341003 6.975952-2.338989 6.035034-.108032 2.185974 8.598022 11.216003-3.705994c.603027 2.583008 1.713013 4.472961 3.192993 5.856995 3.640015 3.401978 10.445007 8.085999 16.512024 8.179993 4.276001.065002 7.718018-4.328979 11.463989-3.541016 5.108032 7.083008 11.160034 9.135986 17.497986 9.661987 4.710999 7.307007 7.876038 16.158997 21.270996 14.782043l5.246033 3.645996-.372986-18.697998c-9.30304 2.98999-14.946045-1.338013-19.754028-7.33905.949036-7.379944 3.934021-14.080994 7.332031-20.644958.296997-7.588989-.726013-14.579041-2.58905-22.179016-.407959-1.664001 1.763-7.86499 4.53302-11.495972l30.166992-7.387024c-3.122986-16.906006-14.109009-20.338989-17.260986-32.307007-3.856995-14.648987-5.742004-32.213013-3.687988-49.346985-.570984-8.020996-4.244019-12.268005-9.549011-14.527039l9.000977-12.895996 7.291992-8.001953 1.131042-28.028992 10.226013-15.525024 16.453979-14.809998-9.923035-6.453979.050049-17.679016-20.554993-17.432007c-1.835022.171997-2.684021 1.987-3.969055 3.072998-4.140991 1.288025-7.953979-.703979-11.911987-1.244019-2.130005 4.768005-10.907959 2.265015-11.945007-.455994-.302979-.792969.386047-2.390991-.812988-2.836975-2.589966-3.497009-5.257996-5.860046-7.848999-8.064026l-8.55896.415039-2.787048 3.20697-3.148987-2.609985-1.960999 3.063965-4.094971-5.354004-18.480042 1.604004.007019 2.978027-8.224976 1.513-1.300049-3.161011-20.961975 7.427979c-5.869019-4.256958-8.025024-1.944946-11.463013-2.086975l-3.690002 8.031006c-17.411011-.65802-24.68396-.664978-27.552979-4.544983-5.513 6.07196-6.854004-1.412048-10.22998-2.277039-1.907043-8.875977-6.953003-6.243958-10.465027-9.237976-6.499023 4.362-10.046997 8.724976-13.086975 13.085999.039978 6.070007-.926025 11.135986-2.637024 15.455994z" fill="#ccc"/><path d="m1029.860107 413.430847-9.843994 7.346008c-1.705017 4.955994-.768982 8.945984-2.163025 11.303986-5.646973 9.550995-4.932007 10.292023-3.178955 12.408997 2.362 2.853027 8.583984.819 11.806946-1.087982l5.14209 2.203979 5.728882-8.667999c-3.524902-2.993988-7.05188-1.444977-10.576904-1.615997.960938-4.317993 5.80896-5.304993 9.255005-7.492981 2.541992-7.865997-2.861084-12.882019-6.170044-14.39801z" fill="#ccc"/><path d="m184.784103 561.111877 6.397003.604004 50.844986-14.390991 18.244019 2.044983 2.641998-10.807983c-.550995-8.645996-7.891006-17.492004 2.036987-25.830017.923004-6.304993.412018-13.166992 7.20401-17.190002l-2.321014-21.263c-2.794983.059998-3.962006-2.841003-5.427002-5.358002-3.255981-5.598999-14.174988-4.937988-24.263992 1.949005-4.804001-3.39798-10.401001-5.737-12.280991-13.03299-6.741013-2.485992-11.990005-1.13501-16.32901 2.559998l.785004-7.273987c-1.057007-2.765015-4.852005-1.970001-9.315994-.305023-1.125.127014-.337006 1.894012.924988 4.063995-1.636002.619019-3.271988.709015-4.90799 1.021027-1.139008 1.401001-2.781006 2.885986-4.600998 3.266998-4.572006-8.012024-7.223007-6.503998-12.656006-2.100006-1.861008 1.51001-3.078995 5.158997-3.839996 8.345001-.856003 3.589996.679993 7.054993 4.597 6.552979l-.363998 4.836029c2.793991 1.25 2.191986 1.746979-.409012 4.484985-1.174988 1.235992 3.294998 6.89801 2.764008 8.234009l-8.584-1.707001c-.229004 1.354004-.531006 3.300995-.654999 4.79599l4.039001 1.729004-3.154999 8.398987c.411987.65802-3.815002.233002-4.853012.375l.063004 5.26001c4.386002 1.181 1.990005 11.455017-2.126999 13.127014l6.037003 3.791016c1.328995-1.041016 5.057999-.131042 7.479004 6.475952 0 0 6.019989 3.78302 5.888992 8.546997-.104004 3.779053-2.656998 4.381042-3.347992 7.309998l-.509003 11.486023z" fill="#ccc"/><path d="m942.445129 381.549866c3.072021 2.10199 6.143982 1.835999 9.215027 6.64801l8.159973-1.634003 1.588989-2.55899 1.346008-.358002 1.807007 3.365997c4.120972-2.184021 7.836975-2.274017 10.453003-.209015 1.594971 1.257996 3.942017-.490997 5.653015-1.126984 3.182007 2.578003 6.338989 5.403992 9.787964 5.304993 11.202026 9.256989 20.859985 19.28598 29.854004 29.646973l9.695984-6.758972c-1.395996-3.702026-3.249023-7.09201-9.822998-7.252014-.325989-2.979004-1.585999-5.625-5.765991-7.227997-.888-3.57901-3.964966-3.509003-6.388977-4.527008-2.044006-5.687988-7.026001-8.803986-11.11499-12.701996-4.610046 1.083008-6.739014-1.970978-8.921021-4.934998l-3.503967-.68399-2.509033 1.540985c-2.622009-2.155975-3.336975-5.129974-4.067993-8.096985l-3.755981-1.002014.953979 5.206024c-2.271973 1.390991-3.517029-2.362-4.702026-6.407013l-7.648987-11.106018c-4.987976-23.246002-9.338989-26.094971-13.799011-32.442993-1.22998 2.891998-1.442993 6.407013-3.463989 7.984009l-11.255005 5.858002c-1.817993 3.15799-4.632996 4.09198-7.625 4.061005-4.216003 20.117981-6.442993 33.102997-6.242004 49.435974l8.676025-.011993.841003-2.807007 4.007019.225006 3.302002 5.228027 5.245972-12.657013z" fill="#ccc"/><path d="m497.67511 699.925842-30.106995-31.151978-7.179016-18.340027 6.617004-6.35199 1.852997-10.322021 8.469025 1.853027c.487-.507019 1.247986-.876038.793976-1.853027l-7.348999-3.766968 2.320007-10.525024 28.192993-1.445984.126007-18.139038h34.935974l-2.707947 3.814026-.313049 11.833008c3.153015 1.203003 5.257996-1.398987 7.301025-5.138977 5.369995-.83606 15.228027 4.014954 12.549011 13.277954-4.473999 5.031006-6.51001 9.717041-4.913025 13.996033 1.176025 3.151001 2.590027 6.211975 3.496033 10.882996l-2.708008 24.645996-5.619019 4.062988c-2.525024-4.171997-7.184998-5.676025-13.700989-4.856995-2.004028-2.51001-3.971008-5.716003-7.77002-.651978l-14.571991 8.966003 1.261993 12.04895-10.97699 7.163025z" fill="#ccc"/><path d="m41.500099 395.955872h18.351002c3.958-5.286987 9.787998-3.556 16.429996 1.21701l10.595001.784973 2.335999 3.003021-7.673996 2.669006c-5.251999-1.122009-9.991005-3.143005-14.347-5.835022-3.075005 1.822998-6.592003 2.912018-11.010002 2.498016l-2.001999 3.337006-15.945.666992 3.265999-8.341003z" fill="#ccc"/><path d="m331.914093 534.411865c-1.60199 2.134033-1.800995 6.604004-6.231995 4.02002-22.003998 2.671997-30.687012 12.003967-46.029999 18.005981l-19.404999-7.101013 2.641998-10.80896c-.550995-8.645996-7.891006-17.491028 2.036987-25.829041.923004-6.305969.412018-13.167969 7.20401-17.190002l-5.15802-46.53299 33.509003 1.036011c4.459015-2.360016 9.205017-2.712006 14.003998-2.693024-2.630981 5.257019-1.228973 10.261017 5.146027 14.95401 5.149994 21.002014 4.509979 41.177002 6.123993 61.673981z" fill="#ccc"/><path d="m63.649101 444.317871c-.577 1.798004-.43 2.688995 1.906998 2.692993.944 1.132019 4.272003-6.859009 3.760002 1.205017l2.973999.317993c-1.008003 4.479004 2.042999 9.97998 4.953003 10.972992 3.745995 1.278015 5.816994 5.614014 7.875999 7.528015l5.083 9.353973c3.5 2.38501 8.322998.651001 15.853996-9.504974-.82-3.38501 3.856003-5.188019 17.835999-4.312012 11.450996 8.251007 14.883995 17.877014 10.614006 28.822998 5.121994-1.237 7.987-4.729004 16.526001-2.548004 4.256989 5.364014 6.891998 11.283997 3.35199 19.321014 4.715012 1.760986 6.416 6.938019 12.999008-1.782013-.449005-1.998993 1.177002-2.720001 3.246994-1.184998 1.253006.929993 3.347-.480988 5.322998.009003l3.478012-8.959991-4.263-1.721008.812988-4.708008 8.714005 1.772003c-.666992-3.212006-5.009003-7.390991-1.791992-9.580994 1.440994-1.483002.774994-2.644012-.688004-3.681l.181-4.105988c-8.449997-1.011017-3.626999-10.360016-.710999-15.098999l-5.179001-4.707001-.595001-10.358002-4.270004 3.14798-1.597992-2.385986 5.702988-5.21701-7.699997-5.850983c1.272003-4.097015-.444-9.01001-1.839996-14.121002l-5.421997-1.179016c.084 2.334015-.725006 4.101013-3.106003 4.865997-2.033005-.610992-3.279007.688995-3.740005 3.895996l-9.608994-3.97699-7.628998 5.531006c.966995-2.479004-1.51001-3.950012-3.068008-5.798004l-4.207001 2.825989c-3.286995 1.106018-3.698997-.66098-3.659996-2.880981.676003-.721008 1.521004-1.27301 1.778999-2.411011-11.866997-1.842987-24.296997-1.102997-35.145996-7.634003l-3.402-.018982-1.478004 18.408997-9.264.246002c-9.052994 3.293976-13.509995 11.724976-14.604996 12.80899z" fill="#ccc"/><path d="m37.4161 417.461853 1.124001 3.087006c2.326 1.592987 6.704998-1.555023 6.442001 6.009979 2.115997 1.105011 4.732998-1.126984 6.250999 3.962006 2.596001 1.312012 9.170998-10.903992 6.790001 7.326996l5.836998 6.39502c3.460999-5.395996 8.664001-10.805023 14.050003-12.736023l9.529999-.231995 1.600998-18.358978-24.592003-.084015c-4.997997 2.429993-10.133995 3.761017-15.578999 2.610016-3.469997 1.240997-7.085999 1.899994-11.453999 2.019989z" fill="#ccc"/><path d="m582.953125 608.788879c-4.47699-1.969971-9.83197-6.432983-12.992004-4.671997l-11.287964-4.026978-22.58905-.207031h-35.464996l-24.153992.265015 2.451019-18.526001-6.35202-8.205017 2.381989-2.911011-1.587982-2.381958-4.234009 1.322998c-5.230988-.649048-7.104004-4.35199-8.330994-8.642029-2.825012-1.062012-6.777008-.679993-6.755005-5.385986 5.94101-10.283997 7.231995-24.325012 18.82901-30.041992l.403992-4.53302 16.558014-.783997c6.18399 3.971008 4.208984 8.53302 14.712006 7.200989 7.270996-13.125 12.544983-37.237 22.015991-38.271973 5.734009-14.115997 7.435974-34.146027 17.203003-42.347015 4.812988-1.720001 8.919006-3.761993 10.700012-6.859009 1.039001-1.80899 1.286987-7.656982.420959-10.330994-.622009-1.923004-1.81897-.424988-3.710999-2.923981l-2.84198-10.840027 2.301025-1.863983 8.745972 7.410004c1.242004 6.065002 4.265015 11.686981 3.677979 18.208984-.633972 9.487-4.549988 10.843994 4.910034 21.667999 1.610962 2.684998 1.977966 5.524017 1.630981 8.45401l-17.630005-1.75c-1.966003 4.812012-6.323975 15.73999 11.046997 19.596985l8.192993 24.614014-15.270996 25.395996 2.129028 18.538025c6.44397 11.880005 13.909973 24.252991 24.338013 33.86499l.552979 18.963989z" fill="#ccc"/><path d="m1015.576111 664.11084c-2.197021 3.432007-4.604004 6.603027-9.434998 6.744019-1.799011 4.764954-4.121033 9.11499-10.103027 10.576965-6.586975 11.89801-11.595947 25.570007-19.823975 35.622009l-23.012024-15.419983-3.61499-13.408997-70.106995-44.023987 23.074036-35.278015.491943-19.765991-7.925964-6.53302c-.984009-7.629028-2.768982-14.52301-9.044983-17.299988l8.159973-7.132996 22.812012-1.031006 14.192017 1.214966c4.86499 2.514038 7.44696 2.602051 20.31897 13.333008l25.84198 3.884033c4.124023-1.420044 7.955017-3.528015 10.82605-9.270996 6.238953-.901001 12.856995-6.300049 20.954956 1.399963 2.651001.94104 6.89502.541992 11.098999-.067993-4.820007 7.703979-9.888 13.916992-14.920959 20.338013l.427002 64.114014 9.789978 12.005981z" fill="#ccc"/><path d="m510.428101 78.567863s2.497986 9.673996-4.972015 14.978996c-3.757996 2.668999-16.043976 11.679001-16.043976 11.679001 1.041992 5.499001 2.328003 19.253998-9.604004 21.127998-8.201019 1.287003-3.903015 7.917 1.580994 16.909004l.348999 46.824005s-7.296997 1.425003-6.779999 3.354004c1.160004 4.328995 1.247009 7.436996 6.713013 12.302994 3.509979 3.123001 3.574982 8.763 3.272003 12.223999-.34903 3.994003 4.143982 5.712006 5.196991 5.687012 8.208008-.199005 14.684998-4.102005 22.459991 17.33699l38.565979 1.188004c4.494019.951004 9.253052 7.835007 9.253052 7.835007l22.086975-6.275009 130.044983 64.299988-.234009-10.444c14.377014 1.171021 16.028015-.483978 16.028015-.483978l-8.886963-151.927002c-5.223022-7.167007-10.371033-14.193008-4.092041-22.142006 0 0 .041992-8.431-1.529968-13.212997-1.636047-4.978004 2.85199-8.362 2.85199-8.362-.070007-6.441002-12.434998-5.952003-18.940002-6.286003-8.536987-.437996-14.27301-1.608002-12.786987-8.002998 0 0-22.31604-8.013-30.953003-2.730003-4.588989 2.806999-14.265015 7.291-16.026001 13.041-1.184998 3.865005-.124023 6.486 2.179993 10.412003 4.033997 6.873001-9.587036 30.470993-25.156982 11.585999 0 0-20.452026-5.629997-32.004028-8.154999-11.305969-2.471001-19.106995-12.385002-14.414978-18.386002.458984-.585999-30.684998-9.596001-30.684998-9.596001-14.384033 2.223999-24.915039-1.981995-27.473022-4.782997v-.000008z" fill="#ccc"/><path d="m184.699097 561.06488-14.324997-5.039978-50.466003-41.342041 15.973999-13.365967-.279999-4.779022 7.828003-7.562988c2.328995-1.574005 5.160004-.476013 7.839996-.183014 6.723007 9.792999 4.921005 14.39801 3.085999 19.367004 3.814011.970001 6.695007 7.317993 13.007004-1.747009-.175995-2.520996 1.363998-2.543976 3.964005-1.026978v4.809998c2.054993.863007 3.55899 4.950012 1.565994 8.687988-1.057999 1.981995-1.78299 4.015991-4.052994 4.423035l6.593002 4.039978c1.871994-.317993 3.487991-1.708984 7.429001 6.611023.847 1.165955 10.695999 5.296997 2.522995 15.100952z" fill="#ccc"/><path d="m1069.993042 1078.480957 47.991943-102.139038c3.670044-11.525024 5.846069-23.049988 11.263062-34.575012 3.67395-4.857971 8.333984-9.36499 5.401001-16.583008l1.042969-9.906982c.537964-2.994019 2.187988-2.932007 4.692017-.520996l1.469971 5.982971c1.784058-.565979 3.534058-1.17395 3.395996-4.142944l-4.86499-52.939026-9.174927-9.944031-5.304077 4.393005-1.380005 13.58905-3.064941 2.695984c-1.609985-.48999-3.966064-2.91803-3.270996 2.585999l-4.551025 4.992981c-5.176025-9.601013-5.94104-1.083008-4.540039 3.065002-.136963 1.812012.37207 4.914001-2.084961 2.085999l-3.708008 5.983032 5.270996 3.922974h-3.12793l-6.778076 4.908997 1.042969-5.950989-6.778931 6.778015 1.563965 8.342957-4.570923.184021.895996-3.739014c-4.223022-2.776001-7.658081 3.104004-11.445068 5.119019l4.171997 6.778015-5.214966.520996-2.08606-6.257019-8.404907 1.380005c.262939 2.955994-3.13501 3.820007-6.194092 4.877014l-.520996-4.171021-4.692017 4.692017-8.189941.399963-1.595947 7.05304-11.070068 16.010986c8.457031 7.434021 5.030029 24.203979 7.300049 36.5-3.114014 9.919006-9.160034 17.491028-14.600098 25.550049-6.325928 4.177002-9.181946 8.354004-10.143921 12.531006-.923035 4.007996-2.866028 11.887024-1.692017 15.894958 1.369019 4.677002 3.955994 3.08606 4.072021 7.763062l1.539001 7.671021c-7.738037 29.793945 11.518982 29.3479 15.66803 36.622925 1.886963-.858032 4.284912.602051 6.12793-.392944 4.093018-2.208008 9.32605-7.661987 14.795044-5.849976 4.573975 1.516968 8.005981-.218018 11.344971-1.763062z" fill="#ccc"/><path d="m248.866104 206.170853-25.483002.686005 1.203995 147.05098 6.721008 2.374023-4.710999 14.376984-75.104004-4.248993-8.643997 6.05899-4.722992-1.743988-3.271011-9.709015-4.293991-1.147003c-8.457001 18.489014-9.755005 16.338013-12.896004 19.501007.513 1.891022-.720001 3.695007-.112 5.427002 1.903 5.419006 3.097 10.916016.232002 13.26001 3.912003 3.483002 8.959999 6.255981 10.410995 11.276001.279007 6.402985-.069992 11.34198-1.792999 13.075989-1.706993 1.709991.32 5.696991 3.869003 2.710999l3.451004-2.096985c1.134003 1.807007 3.636002 2.794006 3.270996 5.501984l7.604996-5.199982 9.287003 3.858002c.943008-1.423004-.240005-3.556 3.371994-4.08902 1.897003.052002 3.231003-1.303986 3.791-4.595978l5.098007 1.237c1.371994 4.802002 3.044006 9.646973 2.162994 14.126984l7.52301 5.681-5.746002 5.26001 1.591003 2.402008 4.190994-2.794006.621994 10.062988 5.294006 4.864014c2.171005-2.154022 5.636002-4.869995 8.257004-3.509003 2.472 1.283997 3.623001 6.309998 5.953995 4.73999 2.438004-1.640991 2.895996-3.175995 6.673004-3.17099 2.845993.003998-2.439011-4.915009 1.104004-4.813019 1.645996.048004 4.217987-1.890991 7.062988-1.142975 2.728012.71698-.664001 10.875977 1.335007 8.694977 4.955994-5.406982 14.830994-3.312988 15.785004-2.104004 2.764999-9.898987-2.639008-19.028992 16.327988-30.457977l8.371002-17.632019c11.159012-4.681976 23.137009-2.550995 33.397018-14.72699 12.898987-8.617004 25.789978-15.097015 32.755981-13.165009l13.022003.014008 7.317993-6.244995 35.029022.437988c.888-1.720001 1.375977-2.983978 6.214996-5.363007.037994-4.228973 3.830994-4.461975 6.46698-5.793976l1.375-51.910004-13.149994 1.895996c-5.192993-3.376007-.824982-4.451996-.777008-11.960999-2.960999-6.666992-6.725983-7.670013-10.423981-7.013-3.248016.578003-4.710022-4.028015-6.414001-3.681-2.934998.597992-6.149017-2.218994-8.096008-6.363007-.661011-1.408997-2.479004-2.050995-3.708008-2.895996-2.731995-1.876007-5.223999-3.317993-4.516998-6.243988.003998.000977-62.546997-47.775024-92.281998-70.758026v.000015z" fill="#ccc"/><path d="m882.769104 801.721863 9.958984 32.830017-2.938965 29.146973c5.909973 5.324036 11.789978 9.64502 20.083984 23.483032 1.041016 1.737 2.130981 6.078979 1.763977 9.560974l-3.609009 15.408997-9.015991 3.926025.699036 13.47998-4.787048.072998c2.466003-6.328979.105042-5.146973-.957947-5.531006-6.536011-4.127991-8.985046-10.203979-10.188049-15.653015 5.347046-8.22998 5.030029-14.843994 4.420044-21.205994l-8.847046-1.635986c-6.829956 1.669006-8.157959-.836975-8.816956-3.11499-3.705994-8.68103-5.408997-5.335999-6.769043-5.923035l-5.276001-7.261963 9.254028-17.156006 7.218994-.811035-4.913025-6.399963 4.302002-22.312012 4.096008-3.020996-11.829956-23.379028c3.438965 3.017029 7.241943 4.044006 16.151978 5.496033z" fill="#ccc"/><path d="m198.933105 157.450867 2.576004-19.744003 15.475006-7.987 3.493988.999008 5.491013-4.493004 9.125.660004.498993-4.353004c19.078995.931999 22.946991-4.169998 26.316986-9.285995l15.97403-6.488998h5.98999l-2.994995-3.993004.997986-3.693001-.498993-4.792999c6.247009-.817001 13.951996.184998 13.997986-6.349998l25.937012.359001 3.493988-7.986c-4.953979-1.818001-5.839996-8.981003-5.177002-16.593002.493011-5.651001.046021-18.508999.046021-18.508999-1.710022-2.063-3.839996-4.006001-4.332001-6.970001-4.158997-.766998-9.265015-.859001-11.003998-3.354-6.037994-1.036999-12.02002-1.588001-17.419006-1.044998-9.88501.993999-13.953003-2.567001-18.022003-11.934002-9.519989-.621-19.612991 19.835999-26.955994 29.950001-17.757004 4.938-30.60701 12.943001-39.436005 23.461998 1.179993 4.276001-.893005 5.923004-5.201996 8.746002-2.785004 1.824997-12.583008 17.464996-9.27301 26.195999.041 6.821999-5.276001 18.192001-20.556992 25.757996 0 0-7.125 6.659012-18.393997 10.335999-4.754013 1.55101-15.776001 2.787003-19.111008 5.862l68.962997 5.244003z" fill="#ccc"/><path d="m116.502098 262.640869c2.054001-14.697006-7.082001-35.352005 21.465004-35.940994l5.990005-44.427002 50.915985 4.492004 2.756012-19.965012 51.315002 39.404007-25.560013.621002 1.296005 147.156998 6.468994 2.306-4.360001 14.294006-75.332993-4.149017-8.587006 6.072021-4.634995-1.521027-3.274994-9.977997-4.555008-1.126984s-8.312996 20.509003-13.604996 18.434998c0 0-2.354004-2.554016-5.016006-5.306-2.345993-2.423004-4.901993-4.824005-6.714996-8.243011-2.521004-4.755005-4.265999-12.388977-7.738998-11.842987-7.393005 1.16098-13.026001-8.643005-13.026001-8.643005s-8.612999-2.390015-14.787003-.674988c-7.98 2.216003-16.993999-.084015-18.602997.959991l7.324997-20.350006.747002-23.721008-4.460999-7.126007c2.384998-4.21698 9.671997-8.10498 4.909-20.72998-.545002-1.444-3.139-.666016-3.139-.666016l-3.076-9.281006 3.779999-3.789978 59.503998 3.740997z" fill="#ccc"/><path d="m813.268127 893.003845 3.531982 9.23999-.270996 4.619995 12.230042.919006 28.651978 11.150024c2.934021 16.013 1.054993 29.401001-3.596985 41.276978-.126038 2.325012-.901001 4.546997-.619995 6.677002.528992 3.994019 2.497986 9.5.263 14.083008-5.755005 11.799011-11.131042 23.610046-12.518005 24.378052-4.752014 2.630005-10.65802 10.31897-10.822021 16.479004l2.859985 70.740967 10.833008.697998 2.885986-10.017944-4.348999 1.630981c.665039-3.963013-.248962-7.926025 3.914001-11.889038l34.763-13.73999c4.304993-3.160034 6.978027-7.949951 9.972046-12.420044l-4.059021-1.401978 7.197998-27.167969-3.697998-1.255981-2.991028-22.865051c-9.847961-6.039001-4.149963-15.426025-.177002-17.621033l21.013-17.855957 1.733032 3.55896 7.794006-8.609985-1.718994-2.653992 5.065979-.927979 1.505005-4.360046 25.749023-12.670959 6.430969.065979c4.875977-3.692993 8.791992-7.659973 15.901001-10.716003l-.455017-3.815979 8.579041-6.638c2.05896-2.113037 3.826965-5.242004 6.520996-5.132019l.375977-4.254028-1.632019-1.80896 4.694031-7.039001 1.187988-4.697998-.748962-3.070984-2.875-4.371033.994995-17.213989c-2.193054-2.130981-.982056-3.580994.190979-5.038025l-.567017-19.003967 6.902039-11.627991c.177979-3.186035.435974-6.371033-.727051-9.557007-10.59198 6.302979-28.313965 17.276001-37.270996 11.646973-3.92395.479004-8.328003.471985-12.125 5.408997-3.223999-.300964-6.135986-.912964-9.992004-.583008l-12.677002 2.296021c-2.300964-2.75-4.612-5.479004-9.947998-2.497009l-18.493958-.602966-2.889038 28.911987c9.122009 7.341003 17.152039 16.783997 21.162048 26.459961 2.440979 5.892029-1.979004 14.38501-2.833008 21.907043l-9.176025 3.969971.479004 12.881042-4.52002.684998c1.100037-2.690002 2.31604-5.436035-1.627991-5.772034-4.992004-4.231995-8.817017-9.002991-9.344971-15.296021 3.82196-6.219971 5.360962-13.252991 4.348999-21.198975l-8.897034-1.630005c-3.463989.840027-7.47998.768982-8.38501-1.98999-2.401001-7.333008-4.727966-7.720032-7.448975-6.979004l-50.276001 16.307007z" fill="#ccc"/><path d="m509.189087 927.450867c.710999 9.319031 1.580994 18.582031 10.125977 25.158997l35.296021 62.855042.89801 28.845032 6.297974 13.349976c.354004 5.197998-1.562988 10.395996 1.631042 15.594971l4.38501 24.552002 19.167969 21.344971c11.90802-12.78894 16.241028-2.459961 19.224976 5.732056 7.288025-.689941 14.57605-1.362061 21.864014-.097046 3.414001-3.084961 6.903992-6.140015 12.280029-8.438965l2.803955-109.555969 16.209045.524963 2.328003-61.692017 39.575989-3.492004 3.041992 8.27301c2.848999-3.127991 6.745972-8.887024 12.570007-9.152039 5.260986-.238953 7.833008-3.648987 13.013-6.404968l-3.79303-5.518982-25.481995 4.242004-28.450012 6.620972-46.046997-6.145996-7.709961-6.483032-72.52002.83905c-3.463013-4.587036-16.583984-15.031006-26.067993-2.716003-3.208008-3.830994-7.078979.96698-10.643005 1.763977z" fill="#ccc"/><path d="m388.208099 313.340851-1.43399 51.949005c-2.296997 1.333984-5.490021-.026001-6.364014 5.576996-2.553986 1.480988-5.700989 2.519012-6.266998 5.490997l-35.108002-.338989-7.134003 5.993988-13.281982.071991c-.384003 2.860016-.315002 6.438019 1.944977 8.208008 2.006012 1.570007 1.710999 4.877014 1.202026 7.790009l16.796997 22.410004 6.093994 2.276978c3.377991-2.963989 6.455994-3.833984 7.987 6.129028l20.803009 2.951996c1.450989-3.325012 1.10199-7.938019 4.871002-9.606018 5.658997-3.199982 4.733978-8.794983 6.752991-13.319 4.619995-2.203003 1.665985-5.335999 26.078979-5.108002 6.313019 3.969025 12.406006 5.296997 19.055023 13.277008l4.895996.200012c.139984-1.674011 5.078003-5.114014 8.096985-5.688019 3.270996-1.778992 9.085999 1.317017 16.835999 8.123016l13.807007 1.235992 13.259003-9.509003 23.179993-.595001c3.496033 1.365997 6.085999 4.492004 11.244995 3.199005 3.705994-4.171997 10.795044-8.153992 18.937988-11.588013-1.263977-3.690002-2.685974-7.292999-1.506958-12.029999 1.985962-1.669983 4.427979-1.93399 4.667969-8.145996l28.005005-31.076996 5.194031-49.556 3.954956-9.964996c-8.005981-3.278015-13.488953-6.38501-15.245972-17.437012-.957031-6.019989.40802-13.789978-.187012-25.029984l-4.986023.854996c-2.737-3.222-5.387939-6.675003-8.888977-7.860001l-39.265991-1.430008-99.483002 65.587006-24.513 6.957001z" fill="#ccc"/><path d="m454.004089 555.605835-3.364014-.156982-1.103973 5.888977c-5.766998.140015-11.53302-.469971-17.300018-2.575989-13.773987 8.575012-24.684998 7.172974-30.313995-12.617981-4.279999-11.047058-11.207001-14.633057-18.542999-17.067017l-23.967987.138 1.047974-38.254028c3.803009-4.839996 6.170013-11.595978 8.306-18.658997 6.409027-1.576996 5.041016-7.211975 5.334015-11.97998 6.406006-4.243011 2.207001-10.899994-.431-15.360016l.414001-12.444c.544983-3.527985-.256989-7.345001 4.803986-10.584991 1.970001-2.421997 3.939026-1.242004 5.910004-13.085999 3.511993-2.699005 7.221008-5.355011 26.13501-4.753998 6.610992 3.457001 15.027985 6.263 19.617004 13.385986l4.256989-.203979c2.747009-1.934998 3.596008-5.347015 8.589996-5.53302 2.848022-.061005 3.016022-2.799988 16.529022 7.806l14.087982 1.31601 13.084015-9.431 23.453003-.458008c3.421967 1.425995 6.225983 4.552002 10.66098 3.190002 5.862-5.837006 12.973999-8.85498 19.660034-11.671997 2.671997 4.283997 6.391968 8.471008 9.72699 11.143005l-2.226013 1.777985 2.81897 11.346008c1.311035.990997 3.695007 1.338013 3.756042 3.080017 2.518005 11.127991-3.718994 14.570984-11.096008 17.027985-9.393982 7.309998-11.754028 27.367004-17.151001 41.920013-10.494019 3.099976-13.989014 22.505981-22.014008 38.463013-7.740997 1.510986-9.700012-2.257996-14.558014-7.5l-16.866974 1.092957-.44101 4.511047c-10.770996 5.625-13.25 18.378967-18.815002 30.250977z" fill="#ccc"/><path d="m514.381104 721.621887-16.807007-21.695984 11.248016-7.145996-1.322998-12.174988 13.76297-8.337036c2.350037-1.846985 4.112-6.328003 8.337036.265015 7.310974-.866028 11.570007 1.011963 13.895996 4.632019l5.82196-3.970032 2.382019-24.21698c-.111023-8.343018-9.447998-13.791992 1.721008-25.673035 1.877991-7.809998-5.108032-13.156982-12.835999-12.836975-1.890991 2.417969-2.60199 6.309998-7.259033 5.268982l.245056-11.619995 2.777954-4.234009 22.497009.265015 10.867981 3.864014c4.055054-2.072021 9.484009 4.083008 13.258057 4.714966l-.571045-18.636963c8.525024-10.861023 14.807007-14.104004 21.835022-15.747009l10.718994 4.895996 13.232971-3.705017c-3.248962 8.694031-6.791992 15.830994-10.082947 24.362-5.642029 14.619995-3.757019 32.442017-6.32605 48.817017-12.218994 5.356995-16.648987 14.763977-23.024963 23.15802l-5.270996 24.255981c-11.502991 12.323975-21.653992 22.202026-28.210022 21.664001-.044006-6.927979-7.562988-13.072021-13.700989-1.682007-4.280029 2.833984-7.359985 1.362976-10.64801-1.758972-4.757019-6.283997-6.322021-.959045-8.468994 2.248962l-8.072998 5.02301z" fill="#ccc"/><path d="m827.219116 653.853882-7.36499 5.891968h-2.504028l-1.472961-2.061951c-6.532043 6.518005-11.413025 13.859985-16.424988 21.138 1.806946.430969 3.250977 1.312988 4.270996 2.724976l2.430969-2.28302 2.799011.222046 1.398987 3.755981 8.470032-1.694031.367981-5.08197 10.53302-.588989c1.544983-2.111023 2.918945-4.223022 5.229004-6.333984l-7.733032-15.689026z" fill="#ccc"/><path d="m830.043091 774.904846-30.442017 7.507019c-1.979004 3.618958-3.381958 5.708008-4.149963 9.80896-.197998 1.063049.717957 3.249023 1.040955 6.238037.640015 5.916992 2.644043 16.291992.830017 19.093018-4.250977 6.561951-7.125 18.678955-6.882996 19.024963 2.427002 3.47699 7.353027 7.026001 10.257019 7.79303 4.003967 1.05896 8.500977.55896 9.474976-.945007l.479004 19.216003c-1.560974-1.288025-3.799988-2.190002-4.904968-3.592041-6.389038-.544006-12.151001 2.875-21.546021-14.895996-6.174011-.529968-12.276001-2.330994-17.551025-9.674011-2.557983-.669983-6.825989 2.830017-10.674988 3.692017-11.008972-1.054016-14.172974-6.27301-16.981995-7.878967-1.908997-1.768005-3.116028-3.827026-3.487976-6.235046l-11.329041 3.758057-2.033997-8.764038-4.687012.153015-4.028992 32.822998 3.707031 3.737976-34.557983-.893982-1.665039 61.512024 19.249023 17.013 26.086975-4.093994 3.817017 5.732971 1.653015 3.862 20.414978.216003 2.786011 2.447998 3.812988-1.004028c11.007019-14.393982 21.039978-18.072998 31.172974-22.859985l.416016-9.559998c7.994995-4.950012 16.618042-7.731995 26.601013-5.81897l-3.73999-9.466003 50.708008-15.888-5.403015-7.897034 9.143982-17.040955 7.06604-.832031-4.572021-6.234009 4.156006-22.44397 4.156006-2.908997-8.312988-16.210022-3.786011-7.507019-19.442017-6.52301c-6.612-9.397949-8.161011-7.629944-10.221008-7.080994l-6.627991-7.380981z" fill="#ccc"/><path d="m51.1511 344.044861c-2.990002 5.139984-5.021999 7.821991-5.108002 11.994995-.197998 9.537018-9.716999 12.576019-14.479998 19.51001 4.433001 6.460999 9.257998 12.807983 10.009001 20.35199h18.350998c3.959-5.28598 9.788998-3.556 16.430004 1.21701l10.595993.785004 2.335007 3.002991-7.674004 2.669006c-5.251999-1.122009-9.990997-3.143005-14.347-5.834015-3.074997 1.822998-6.591999 2.912018-11.009998 2.498016l-2.002003 3.335999-16.014999.666992c-.944 4.338013-1.814999 8.674988-1.000999 13.013 3.854-.355988 7.606998.209015 11.667-1.992004 5.472 1.401001 10.667.175995 15.690002-2.679993l27.675995.330994c10.401001 5.949005 23.374001 6.562012 35.384003 7.343994.565994-6.268982 4.069-12.502991-9.585999-22.020996 2.096001-2.697998 1.311996-8.904999-.522003-13.389008-1.037994-2.53598.952003-3.333984.009003-6.040985-1.296997-.722992-2.860001-2.77301-5.045998-4.834991-2.444-2.308014-7.406006-8.937012-7.406006-8.937012-2.903999-8.713013-6.649994-12.277008-6.649994-12.277008-8.915001 1.459015-14.421005-8.575989-14.421005-8.575989-7.610001-2.056-11.589996-.541992-14.902-.368011-8.647999.453003-10.407997 1.52002-17.976997.230011z" fill="#ccc"/><path d="m119.884102 514.762878-13.127998-6.666992c-1.460007-4.063019-5.507004-6.278992-9.636002-8.437012.389-5.73999-3.418999-7.04599-5.964005-9.121002l-.865997-13.701996c5.756996 2.23999 10.852997-3.567993 15.867996-10.042999-1.248993-5.044983 10.182007-4.527985 17.814003-4.381012 7.603004 6.619019 15.562996 12.966003 10.659996 29.059021 3.251999-1.226013 6.320999-2.63501 9.929001-3.505005l-9.052994 8.470001.291992 4.817993-15.915993 13.509003z" fill="#ccc"/><path d="m731.630127 938.93988 5.062012 10.252991c1.661987 1.932007 3.828979 3.733032 3.679016 6.872986 3.949951 6.754028 8.876953 11.554993 13.382996 17.197021 3.455994 1.083008 6.513 2.645996 8.612976 5.422974 2.121033 2.559998 4.533997 5.140015 8.791992 5.798035-1.796997 10.422974 2.880005 19.399048 7.776001 21.268005 5.799988.264038 11.286011 1.344055 15.444031 5.309021 11.797974 1.406982 13.177002 3.046021 15.968994 4.653015 9.664001-3.231018 14.169006 2.162964 19.664001 5.882019 1.315002-7.878052 5.955994-12.288025 11.209961-16.442017 4.14801-6.042053 7.953003-15.502075 11.916016-23.396057 2.937988-4.893982.570007-10.065979-.140015-15.153015l.778992-6.487976c7.140015-17.903992 4.949036-28.59198 3.790039-41.189026l-28.988037-11.187988-12.179993-.867981.403015-4.127014c-10.325989-3.346985-18.729004 1.163025-26.429993 5.411011l-.348999 9.507996c-23.713013 10.578003-24.973999 16.328003-31.502014 22.978027l-3.536987 1.096985-2.882996-2.551025-20.471008-.247986z" fill="#ccc"/><path d="m1037.437134 436.58786-5.874023 9.156006c-5.707031 8.230988 9.947021 20.812988 22.823975 32.830994l49.755005 15.962006 16.039063-.667999-48.323975 55.292023-19.5271-.387024c-6.209961 3.486023-12.278931 7.055969-16.727905 11.598999-5.080078 3.163025-10.762085 5.124023-16.162048 7.64801-3.348022 7.313965-8.925964 13.291992-13.955017 19.597961l.155029 64.165039 9.786011 12.310974 22.514038-25.213989 37.731934-35.61499 4.339966-.520996 15.812012-14.957031.645996-2.992981c8.677979-6.59198 19.484009-17.653015 22.176025-23.116028 4.770996-9.66095 10.916992-17.846985 17.770996-25.687988l14.857056-42.905975c2.890015-2.786011 5.055908-6.537018 6.873901-10.753998.751099-4.5 3.442017-6.091003 5.509033-8.618011l1.692017-21.485992c4.812988.675995 2.492065-8.843018 2.764038-14.656006-1.859009-1.65799-3.932007-4.391998-.044067-6.587006l-.034912-5.355011c-3.494995.291016-7.014038-3.701996-10.449097-1.005981-4.300903 4.046997-10.037964 6.941986-16.580933 7.481995-7.275024.60199-13.205078 4.811005-16.254028 3.778015-4.929932 4.088989-11.210938 5.475983-19.364014 3.116974-5.442017 4.84201-9.01001 11.131012-26.486938 6.688019l-11.140015 7.964996c-17.188965 4.660004-21.667969-9.253998-30.322021-17.065002z" fill="#ccc"/><path d="m887.21875 477.4375h-.03125l-7.71875 2.84375v-11.78125l-4.46875-8.5-7.46875-2.84375-6.03125-33.53125-6.5-2.625v5.6875h-11.4375l5.9375 4.4375 1 13.875-17.15625 22-16.15625-10.625-10.6875 3.9375v5.6875l-9.34375 3-.15625-5.84375-20.4375-.65625v7.375h-19.5625l-6.5.625-4.5-8.625h-5.5-8l-14.53125 28.4375-.03125.28125c.164246.072021.374084.073944.53125.15625 2.096008 2.934998 2.970276 6.519257 12.65625 5.40625l5.59375 5.125c-1.208984 8.48999 11.365723 13.16925 18.71875 19.28125l6.84375 13.5c5.888977 2.861023 12.967773 4.088745 13.84375 13.96875 3.921021 2.228027 5.462769 5.492004 8.34375 8.375 1.323975 1.325012.091248 2.593018 1.40625 3.625 3.729004 2.927979 10.452026 3.64447 11.375-.5625 0 0 6.221741 2.35553 10.71875 1.8125 2.791992-.336975 2.535522-2.972473 5.3125-3.5625l20 17.5 3.5625-2.59375c13.728027 3.184998 27.46051 1.357971 41.1875-.625l16.375-14.03125 22.65625-.8125.21875-11.78125-11.65625-4.03125-8.0625-17.84375-11.6875-9.875c2.04303-3.145996-3.536011-6.291504-6.25-9.4375-3.677979 1-7.669006.196259-11.875-1.96875l3-3.84375-.0625-5.53125 10.71875-.1875c2.083984-1.311005 4.34552-1.880249 5.9375-5.15625z" fill="#ccc"/><path d="m917.419006 258.597595-44.914001.487976-.875 4.278015-8.531006.968994-4.062988-4.25-132.093018 4 1.593018 33.093994c-5.616028.425018-11.406006.442017-15.968018-.187988l.25 10.531006 1.531006 62.593994-17.906006.968994.218018 6.687012-10.25 12.968994.656982 9.218994-3.437988 1.562012c-.328003 5.756989-.987 10.798981-3.406006 12.375l.125 7.468994 7.468994-1.563019c1.502014 8.38501 1.869995 17.19101 8.906006 23.563019l.906006 5.593994-3.343994.468994c5.640991 7.02002 12.151001 13.598999 15.843994 21.593018-6.27002 19.419983 2.645996 16.686981 8.062988 19.062988l.031006-.282013 14.531006-28.436981h8 5.5l4.5 8.625 6.5-.625h19.562988v-7.375l20.437012.656006.156006 5.843994 9.343994-3v-5.688019l10.687988-3.936981 16.156006 10.625 17.156006-22-1-13.875-5.937012-4.437012h11.437012v-5.687988l6.5 2.625 6.031006 33.531006 7.468994 2.843994 4.468994 8.5v11.781006l7.718994-2.843018h.031006l-.25-20.406982 5.031006-7.469025 5.093994.063019 2.5-12.906006c6.033997-7.424988 8.403992-16.945984 18.093994-22.281006l3.062012-24.406982c-1.763-17.22702 3.471985-32.098999 5.968994-47.906006 2.494995-1.027008 5.346985.867004 7.375-3.906006l11.156006-5.657013c2.200989-1.465973 2.947998-4.899994 3.593994-8.436981-1.513-3.378998-3.682007-2.768005-5.687988-3.187012-3.29303-6.325989-8.757019-6.882996-13.5-9.343994l-6.625-40.093994-5.25-5.562012-.617004-6.828979z" fill="#ccc"/><path d="m586.991089 1119.159912 26.843994 54.015991.35199 12.349976c-1.356995 2.971069-3.58197 3.057983-6.070984 2.577026-1.007996 1.416992-1.953003 3.250977.257996 4.631958 3.325989 5.905029 5.733032 13.087036 9.971008 18.147095 3.481018 4.157959 8.645996 6.333008 12.740967 9.920898l10.659058.852051c2.19397-1.541016.198975-3.641968 8.149963-4.416016l15.613037-.100952c4.928955-1.936035-.617004-6.811035 15.458984-5.617065 2.640991.333984 3.784973 3.232056 7.927002.993042 7.463013-1.203003 14.588989 1.641968 21.859985 2.735962 2.155029-1.721924 1.353027-4.650024 13.460022-2.310913l1.237976-4.709106 14.189026.223022 84.113953-78.166992c13.340027-5.536011 16.289001-21.689941 20.027039-37.03894l-10.561035-.707031c-.109009-1.279053-10.138977 5.895996-11.41095 6.036987-5.423035.604004-8.55304-1.149048-7.77301-10.649048.580994-7.080933 8.166992-12.720947 10.171997-14.031006 2.674988-1.747925 5.342957 4.839111 8.005981 3.098999 0 0-.940979-30.121948-2.067017-55.319946-5.664001-3.445984-9.725952-9.367981-19.815002-5.973022-5.296997-3.957947-10.593994-3.552979-15.889954-4.78894l-58.190002 46.150024-2.136047 9.642944c-6.610962 3.494995-13.222961 3.02002-19.833984 3.723022-5.007996-3.807983-10.403992-6.057007-16.27301-6.414063l-9.70697 8.49707c-.90802 4.678955-3.627991 5.126953-5.712036 7.060913-3.302979 1.915039-5.028992 4.355103-5.745972 7.13208-9.781982 2.418945-16.643982.820923-23.017029-1.447998 1.229004-5.719971 4.907043-9.435059 1.83905-18.669067l-13.531006-15.13501-1.76001 64.99707c-4.093018 1.771973-8.186035 4.463013-12.278015 8.391968-6.822021-.583984-12.490967-1.531006-21.953003.177002-1.533997-7.177002-8.089966-19.043945-19.153992-5.859985z" fill="#ccc"/><path d="m832.305115 1077.53894.757019 14.712036c-4.39801 2.199951-7.667053 4.400024-11.413025 6.600952-4.109985-.103027-6.742004-1.18103-7.393005-4.470947-1.036987-5.241089-.445984-8.811035 2.463013-13.216064 2.114014-3.203003 5.937012-7.244995 8.500977-7.67395 1.319031-.221069 3.267029 1.759033 4.403992 3.428955l2.68103.619019z" fill="#ccc"/><path d="m879.483093 644.11084-6.065002 9.036011-46.021973.782959 7.542969 15.499023c-11.880981 11.988037-4.325012 14.259033-1.5 18.893982-5.210999 9.704041-9.219971 21.55603-19.643982 21.952026-2.619995.658997-4.539001.002991-5.028992 3.223999-1.14801 7.538025 2.156982 23.151001 5.186951 32.171021 3.106018 6.961975 8.596008 11.672974 11.575012 17.503967 2.744995 4.044983 3.41803 8.090027 4.716003 12.13501l6.382019 7.198975c2.692993-.799988 5.692993-.074951 9.940002 6.894043l19.153992 6.322998c4.130005 3.828003 10.656006 4.859009 17.06897 6.023987l10.041016 33.133972 18.765015.479004c3.244019-2.040955 6.487-1.867004 9.731995 2.350037 6.984985-1.101013 13.22699-2.945007 22.413025-1.845032 2.904968-3.117004 6.516968-5.440002 12.53595-5.055969 7.209045 5.747009 27.77002-5.937988 36.626038-11.658997-2.158997-3.895996-6.096985-6.015015-9.752991-8.414001.294983-4.429993-1.493042-9.276001-3.091003-14.085022-1.863037-2.937988-3.301025-5.77002-2.069031-7.934998l-4.352966-9.512024 2.730957-.890991c-.709961-7.252991-.66095-14.097961 3.663025-18.639954-2.968994-6.142029-13.075012-11.014038-12.494995-18.300049l8.632019-24.303955-22.905029-15.171021-3.794006-13.515991-69.984985-44.27301z" fill="#ccc"/><path d="m331.881104 534.464844 11.917999-3.437988-7.90799-61.995026c-1.01001-4.725983-5.70401-6.819977-9.287018-9.708984l1.899017-10.131989-14.053009-1.819c-2.631012 5.256989-1.229004 10.260986 5.145996 14.954987 5.149994 21.002014 4.51001 41.177002 6.123993 61.673035l6.161011 10.464966z" fill="#ccc"/><path d="m495.520111 10.18686c-3.015991.103-14.837006-6.059-21.477997 3.602 0 0-5 2.215-5.281006 7.344-.434998 7.900999-1.187988 32.499998-1.187988 32.499998-.831024-1.328999-6.753021-.324997-7.688019 3.688004-1.270996 5.453999-7.419006 4.025997-7.906006 6.780998-.980988 5.546997 3.862 10.650002 9.563019 15.625 1.460999 1.276001-.541992 8.334.906006 9.625 4.414978 3.939003 12.25 6.625 12.25 6.625 1.816986 18.072998 5.030975 30.563004 5.030975 30.563004 1.19101.744995 13.819-3.591003 9.465027-21.346001-.503998-2.056 25.882965-10.603004 21.145996-27.118004-.492004-1.717003-4.787994.316002-5.485016-2.799995-1.565002-6.991005-1.363983-8.713005-4.020996-9.763-1.334991-.527-6.856995 4.774994-7.979004 4.098-2.503998-1.513-5.627991-5.035004-4.276001-6.779003 2.32901-3.005001 19.157013-13.436001 19.325012-19.187.251007-8.558998-2.90799-9.383999-7.105011-11.663-2.384003-1.293999-1.526978-5.348999-.755981-7.661999.472992-1.418001 9.557983-4.51 8.509979-7.796-.710999-2.229001-2.028992-2.571001-2.511993-4.314001-.355988-1.286-7.221008 5.885-7.653992 4.777-1.14502-2.921-1.489014-4.709001-2.867004-6.8z" fill="#ccc"/><path d="m712.360107 307.755859-130.179016-64.108994-17.242981 5.210999c1.179993 10.184982.312012 18.069992.494995 24.304001.268005 9.139984 6.627991 15.548004 15.348022 18.638l-3.860046 9.393982-5.547974 50.300018-27.169006 29.89798c-.862 1.696014-1.34198 3.393005-1.23999 5.08902-.859985 1.945007-1.965027 2.792999-3.143982 3.302002-1.897034 1.177979-.960999 3.169006-1.18103 4.64798-1.580017 10.598022 20.577026 26.294006 20.577026 26.294006 1.140991 4.787994 2.828003 9.041016 3.674011 14.095001.911987 5.449005-1.756042 12.024994-.988037 16.747009 1.11499 6.854004 8.721008 7.541992 7.68103 18.005005l-17.444031-1.605011c-5.062988 10.106995-1.52002 16.692993 10.913025 19.644012l8.211975 24.514984c13.192017-3.010986 22.481995-1.408997 39.71698-9.196991l15.679993-1.553009c2.892029-4.932983 9.013-7.55899 6.914001-16.054993l21.697021-2.368988c1.696045-1.580017 2.51001-4.042023 5.265015-4.563019 4.252991-.131989 5.497009-2.895996 6.63501-5.752991 1.981995-4.696991 6.979004-6.380005 10.734009-9.306.677002-15.492004 12.386963-11.057007 19.52301-13.988007l-.854004-5.376007c-4.084045-4.453003-7.606018-9.506989-8.884033-23.677002l-7.612976 1.431-.16803-6.886993c2.330994-2.5 4.005005-8.431 3.40802-12.645996l3.544983-1.662994-.872986-8.95401 10.47998-13.395996-.325012-6.562988 18.064026-.950012-1.848999-62.904999z" fill="#ccc"/><path d="m833.6651 575.048889 3.304016-2.504028c13.281982 3.388 27.125 1.448059 40.96698-.47998l8.291016-6.857971c4.70697 2.771973 8.229004 7.526978 8.934998 17.44696l7.976013 6.377991v19.369019l-29.683044 44.682983-46.276001.855042-7.08197 5.737976-2.763977.054016-1.591003-2.127991 1.061951-27.608032 10.372009-15.740967 16.54303-14.840027-10.001038-6.322998-.057007-18.041992h.004028z" fill="#ccc"/><path d="m116.532097 262.885864c2.054001-14.697006-7.083-35.352005 21.465004-35.94101l5.990005-44.427002 50.916 4.492004 3.869995-29.992004-68.104004-5.029999c-6.32 9.701004-9.988998 17.914001-19.529999 21.698013-9.003998 3.570999-12.526001 14.682999-15.072998 24.306992l-26.800003 30.666c-.964996 6.962997-5.012001 11.615005-10.426998 15.240005-4.896 6.404999-7.887001 14.363007-8.639 21.438995l6.828999-6.19101 59.502998 3.739014z" fill="#ccc"/><path d="m571.363098 511.994873-15.382019 25.231995 2.063049 18.345032c6.572998 12.91095 14.234985 24.840942 24.451965 34.472961 6.340027-7.057007 9.127991-12.497986 21.686035-15.748962l10.925964 4.75 12.254028-3.449036c3.036987-3.526978 2.790955-9.107971 3.028992-14.386963 4.210999-6.869019 8.747986-10.479004 13.31897-13.749023 3.388 2.620972 9.387024.601013 9.838989 8.438965 4.014038 4.516052 7.800049 7.208008 10.725037 3.018005 3.391968 5.015015 17.807007 3.414001 27.724976 4.513.572021-1.860962 1.624023-4.320007 3.653992-8.003967 3.321045-.504028 6.307007-1.811035 11.373047 1.875977l20.945984-7.328003 1.364014 3.092041 8.377991-1.346008-.145996-3.119995 18.506958-1.537048 4.121033 5.291016 1.908997-2.860962 3.161011 2.306946 2.664001-3.060974 8.625-.336975c-1.764038-4.888-1.012024-10.684021-14.083008-13.765015l-6.721008-13.729004c-6.737976-6.450012-18.680969-9.431-19.552002-19.792999l-5.164978-4.98999c-4.377014.203979-8.187988 2.100983-13.065002-5.813019-7.882019-1.197998-13.231018-2.432983-8.054016-18.395996-4.049011-9.773987-10.234985-14.402008-15.604004-21.867004-11.299988 2.161011-15.835999 1.584015-16.234009 13.266998-3.588989 2.858002-8.859985 4.315002-10.5 8.799011-1.421997 3.312988-2.596985 5.86499-7.623962 6.294006-1.434021.884979-3.173035 2.685974-4.968018 4.654999l-21.414001 2.233002c1.122009 4.027985.687988 7.658997-3.921021 12.154999-1.229004 1.200989-2.112 2.671997-3.260986 3.963989l-15.419983 1.434998c-17.825989 7.86499-26.77301 6.195007-39.606018 9.143005z" fill="#ccc"/><path d="m778.101074 1147.398926c-1.207031.114014-3.312988.468018-4.825012 1.072021-1.112976.444946-2.119019.912964-2.948975 1.743042-.674011.67395-.854004 1.672974-1.072021 2.546997-.229004.91394-2.08197 2.095947-2.815002 2.278931-1.026978.256958-2.412964 0-3.484985 0-2.14502 0-3.166016-.468994-4.424011-2.145996-1.533997-2.046021-3.460022-3.621948-4.825012-5.896973-.96698-1.609985-1.847961-2.593018-2.412964-4.290039-.425049-1.272949-.269043-2.687988-.269043-4.020996 0-1.713989.789001-3.276001 2.278992-4.020996.179016-.089966.357056-.178955.536011-.269043 1.752014-.875977 2.188049-2.856934 3.485046-4.154907 1.428955-1.429077 3.280945-2.697021 4.825989-4.020996.981018-.842041 2.382996-1.593994 3.484009-2.14502 1.692993-.847046 3.307983-1.296021 5.094971-1.743042 1.341003-.334961 2.903015-.792969 4.020996-1.072021.221008-.054932.445984-.088989.669983-.133911.223999-.045044.447021-.090088.670044-.134033 1.579956-.31604 3.57196.473022 4.424011 1.608032 1.166992 1.555908 2.627991 3.057007 3.753967 4.557983.588013.784912.552979 2.713989 1.072021 3.75293.740967 1.484009 1.622009 2.588013 2.144958 4.156006.535034 1.60498-.234985 3.286011-.937988 4.69104-.835999 1.672974-1.96698 2.637939-3.21698 3.887939-1.02301 1.023071-2.116028 1.854004-3.218018 2.68103-.580994.436035-1.36499.685059-2.010986 1.072021z" fill="#ccc"/></g></svg>