<svg enable-background="new 0 0 1000 1000" viewBox="0 0 1000 1000" xmlns="http://www.w3.org/2000/svg"><path d="m2138.5 3268.6c0-1146.5 7.7-1818.4 21.1-1946.6 128.2-1188.6 981.9-2176.3 2134.2-2467.2 122.5-30.6 239.3-55.5 258.4-55.5 34.5 0 36.4-38.3 36.4-1357.1v-1359l-80.4-9.6c-490-59.3-712-103.3-1001-197.1-208.6-67-463.2-181.8-568.5-256.5-51.7-38.3-53.6-42.1-53.6-220.1v-179.9h2115 2115v179.9c0 176.1-1.9 181.8-51.7 218.2-107.2 74.7-365.6 191.4-570.4 258.4-287.1 93.8-511.1 137.8-999.2 197.1l-82.3 9.6v1353.3 1353.2l168.4 34.5c243.1 51.7 478.5 134 713.9 254.6 872.8 446 1448.9 1290.1 1548.5 2264.3 11.5 120.6 19.1 869 19.1 1937v1739.9h-1864.2-1864.3l-30.6-80.4c-17.2-45.9-107.2-289-201-541.7l-168.4-459.4 394.3-199.1c216.3-109.1 396.2-199.1 398.1-201s-172.3-352.2-386.6-777.1c-214.4-426.8-390.5-765.6-392.4-754.1 0 9.6 59.3 312 132.1 668 72.7 357.9 132.1 650.8 130.2 652.7s-181.8 91.9-398.1 201l-396.3 199.1 195.2 535.9c109.1 294.8 214.4 585.7 237.3 647l42.1 109.1h-775.2-775.2v-1751.4z" transform="matrix(.1 0 0 -.1 0 512)"/></svg>