<?xml version="1.0" encoding="utf-8"?>
<!-- Svg Vector Icons : http://www.onlinewebfonts.com/icon -->
<!DOCTYPE svg PUBLIC "-//W3C//DTD SVG 1.1//EN" "http://www.w3.org/Graphics/SVG/1.1/DTD/svg11.dtd">
<svg version="1.1" xmlns="http://www.w3.org/2000/svg" xmlns:xlink="http://www.w3.org/1999/xlink" x="0px" y="0px" viewBox="0 0 1000 1000" enable-background="new 0 0 1000 1000" xml:space="preserve">
<metadata> Svg Vector Icons : http://www.onlinewebfonts.com/icon </metadata>
<g><g transform="translate(0.000000,512.000000) scale(0.100000,-0.100000)"><path d="M2138.5,3268.6c0-1146.5,7.7-1818.4,21.1-1946.6c128.2-1188.6,981.9-2176.3,2134.2-2467.2c122.5-30.6,239.3-55.5,258.4-55.5c34.5,0,36.4-38.3,36.4-1357.1v-1359l-80.4-9.6c-490-59.3-712-103.3-1001-197.1c-208.6-67-463.2-181.8-568.5-256.5c-51.7-38.3-53.6-42.1-53.6-220.1V-4780h2115h2115v179.9c0,176.1-1.9,181.8-51.7,218.2c-107.2,74.7-365.6,191.4-570.4,258.4c-287.1,93.8-511.1,137.8-999.2,197.1l-82.3,9.6v1353.3v1353.2l168.4,34.5c243.1,51.7,478.5,134,713.9,254.6c872.8,446,1448.9,1290.1,1548.5,2264.3c11.5,120.6,19.1,869,19.1,1937V5020H5997.2H4132.9l-30.6-80.4c-17.2-45.9-107.2-289-201-541.7l-168.4-459.4l394.3-199.1c216.3-109.1,396.2-199.1,398.1-201c1.9-1.9-172.3-352.2-386.6-777.1c-214.4-426.8-390.5-765.6-392.4-754.1c0,9.6,59.3,312,132.1,668c72.7,357.9,132.1,650.8,130.2,652.7c-1.9,1.9-181.8,91.9-398.1,201L3214.2,3728l195.2,535.9c109.1,294.8,214.4,585.7,237.3,647l42.1,109.1h-775.2h-775.2V3268.6z"/></g></g>
</svg>